name C:\Users\u0101727\Documents\MyRepositories\predictivesimulations\OpenSimModel\subject1\EMG\EMG_gait_63.mot
datacolumns 25
datarows 17
range 1.30100000 1.31700000
endheader
time	HamL_r	TA_r	PerL_r	GL_r	HamM_r	Sol_r	VL_r	VM_r	PerB_l	TA_l	PerL_l	GL_l	GM_l	Sol_l	VL_l	VM_l	AddL_l	RF_l	TFL_l	GluMed_l	HamL_l	HamM_l	GluMed_r	RF_r	
          1.30100000	          0.00296677	          0.00457047	          0.00322107	          0.00449445	          0.00274453	          0.06424063	          0.00574840	          0.00426375	          0.00853360	          0.03963292	          0.00994352	          0.00896980	          0.01676992	          0.00928762	          0.01673969	          0.01618050	          0.01495159	          0.01330480	          0.00834246	          0.00673761	          0.02340029	          0.05353395	          0.00767777	          0.00638490	
          1.30200000	          0.00296109	          0.00459157	          0.00321818	          0.00449139	          0.00273230	          0.06459222	          0.00571090	          0.00424236	          0.00855392	          0.03963058	          0.00985988	          0.00893796	          0.01645656	          0.00925119	          0.01702931	          0.01657737	          0.01514910	          0.01344214	          0.00832604	          0.00675638	          0.02337519	          0.05300200	          0.00756108	          0.00632669	
          1.30300000	          0.00295797	          0.00461002	          0.00321561	          0.00448969	          0.00272222	          0.06498763	          0.00567343	          0.00421862	          0.00857481	          0.03965465	          0.00977767	          0.00890638	          0.01613908	          0.00921401	          0.01730682	          0.01698525	          0.01534633	          0.01357331	          0.00830920	          0.00677577	          0.02333979	          0.05244255	          0.00744654	          0.00626630	
          1.30400000	          0.00295750	          0.00462566	          0.00321317	          0.00448953	          0.00271430	          0.06542808	          0.00563605	          0.00419250	          0.00859634	          0.03970463	          0.00969705	          0.00887546	          0.01581938	          0.00917622	          0.01757043	          0.01740436	          0.01554223	          0.01369805	          0.00829185	          0.00679583	          0.02329421	          0.05185723	          0.00733413	          0.00620400	
          1.30500000	          0.00295979	          0.00463841	          0.00321070	          0.00449103	          0.00270853	          0.06591437	          0.00559884	          0.00416397	          0.00861850	          0.03977967	          0.00961813	          0.00884549	          0.01549924	          0.00913796	          0.01781844	          0.01783488	          0.01573567	          0.01381597	          0.00827382	          0.00681657	          0.02323836	          0.05124770	          0.00722380	          0.00614017	
          1.30600000	          0.00296493	          0.00464831	          0.00320802	          0.00449428	          0.00270492	          0.06644704	          0.00556187	          0.00413304	          0.00864121	          0.03987855	          0.00954105	          0.00881674	          0.01518024	          0.00909938	          0.01804935	          0.01827697	          0.01592539	          0.01392671	          0.00825491	          0.00683795	          0.02317190	          0.05061556	          0.00711547	          0.00607525	
          1.30700000	          0.00297304	          0.00465544	          0.00320496	          0.00449931	          0.00270347	          0.06702625	          0.00552528	          0.00409983	          0.00866434	          0.03999959	          0.00946593	          0.00878940	          0.01486389	          0.00906055	          0.01826186	          0.01873082	          0.01611004	          0.01403008	          0.00823486	          0.00685986	          0.02309441	          0.04996233	          0.00700913	          0.00600966	
          1.30800000	          0.00298420	          0.00465991	          0.00320138	          0.00450615	          0.00270415	          0.06765155	          0.00548921	          0.00406446	          0.00868775	          0.04014074	          0.00939298	          0.00876363	          0.01455163	          0.00902153	          0.01845483	          0.01919666	          0.01628819	          0.01412610	          0.00821340	          0.00688218	          0.02300557	          0.04928942	          0.00690482	          0.00594381	
          1.30900000	          0.00299849	          0.00466192	          0.00319720	          0.00451479	          0.00270692	          0.06832166	          0.00545382	          0.00402711	          0.00871134	          0.04030003	          0.00932250	          0.00873957	          0.01424483	          0.00898234	          0.01862726	          0.01967464	          0.01645828	          0.01421487	          0.00819019	          0.00690483	          0.02290528	          0.04859811	          0.00680270	          0.00587809	
          1.31000000	          0.00301594	          0.00466167	          0.00319241	          0.00452517	          0.00271167	          0.06903447	          0.00541929	          0.00398798	          0.00873508	          0.04047616	          0.00925490	          0.00871737	          0.01394481	          0.00894300	          0.01877835	          0.02016473	          0.01661862	          0.01429649	          0.00816482	          0.00692774	          0.02279363	          0.04788953	          0.00670301	          0.00581283	
          1.31100000	          0.00303654	          0.00465936	          0.00318700	          0.00453717	          0.00271831	          0.06978702	          0.00538575	          0.00394732	          0.00875900	          0.04066850	          0.00919066	          0.00869726	          0.01365285	          0.00890359	          0.01890771	          0.02066663	          0.01676740	          0.01437103	          0.00813682	          0.00695095	          0.02267081	          0.04716444	          0.00660601	          0.00574833	
          1.31200000	          0.00306027	          0.00465516	          0.00318097	          0.00455068	          0.00272670	          0.07057554	          0.00535330	          0.00390548	          0.00878309	          0.04087661	          0.00913030	          0.00867954	          0.01337014	          0.00886418	          0.01901561	          0.02117983	          0.01690276	          0.01443859	          0.00810573	          0.00697449	          0.02253728	          0.04642313	          0.00651201	          0.00568486	
          1.31300000	          0.00308710	          0.00464921	          0.00317435	          0.00456555	          0.00273665	          0.07139539	          0.00532201	          0.00386280	          0.00880733	          0.04109983	          0.00907430	          0.00866456	          0.01309776	          0.00882496	          0.01910295	          0.02170354	          0.01702285	          0.01449941	          0.00807109	          0.00699838	          0.02239378	          0.04566545	          0.00642121	          0.00562263	
          1.31400000	          0.00311697	          0.00464159	          0.00316719	          0.00458164	          0.00274799	          0.07224115	          0.00529189	          0.00381961	          0.00883180	          0.04133727	          0.00902319	          0.00865263	          0.01283664	          0.00878624	          0.01917107	          0.02223675	          0.01712596	          0.01455370	          0.00803248	          0.00702261	          0.02224113	          0.04489126	          0.00633378	          0.00556179	
          1.31500000	          0.00314980	          0.00463230	          0.00315958	          0.00459880	          0.00276053	          0.07310672	          0.00526290	          0.00377621	          0.00885671	          0.04158794	          0.00897749	          0.00864405	          0.01258756	          0.00874839	          0.01922146	          0.02277827	          0.01721055	          0.01460159	          0.00798951	          0.00704711	          0.02208009	          0.04410077	          0.00624984	          0.00550248	
          1.31600000	          0.00318552	          0.00462131	          0.00315163	          0.00461686	          0.00277408	          0.07398533	          0.00523500	          0.00373290	          0.00888240	          0.04185089	          0.00893773	          0.00863916	          0.01235117	          0.00871182	          0.01925553	          0.02332694	          0.01727528	          0.01464304	          0.00794190	          0.00707187	          0.02191124	          0.04329470	          0.00616955	          0.00544486	
          1.31700000	          0.00322405	          0.00460851	          0.00314348	          0.00463563	          0.00278849	          0.07486985	          0.00520807	          0.00368997	          0.00890931	          0.04212526	          0.00890432	          0.00863829	          0.01212798	          0.00867685	          0.01927464	          0.02388194	          0.01731910	          0.01467786	          0.00788953	          0.00709686	          0.02173496	          0.04247406	          0.00609307	          0.00538902	
